# xmcd CD database file
#
# Track frame offsets:
#	150
#	18097
#	35707
#	53615
#
# Disc length: 959 seconds
#
# Revision: 1
# Processed by: cddbd v1.5.1PL2 Copyright (c) Steve Scherf et al.
# Submitted via: CDex 1.51
#
DISCID=2603bd04
DTITLE=森口博子 - スピード
DYEAR=1992
DGENRE=JPop
TTITLE0=スピード
TTITLE1=窓打つ雨
TTITLE2=スピード<オリジナル・カラオケ>
TTITLE3=スピード<マーチ・バージョン>
EXTD=YEAR: 1992
EXTT0=
EXTT1=
EXTT2=
EXTT3=
PLAYORDER=
